<?xml version="1.0" encoding="UTF-8" standalone="no"?>
<svg width="38px" height="39px" viewBox="0 0 38 39" version="1.1" xmlns="http://www.w3.org/2000/svg" xmlns:xlink="http://www.w3.org/1999/xlink" xmlns:sketch="http://www.bohemiancoding.com/sketch/ns">
    <!-- Generator: Sketch 3.3.3 (12072) - http://www.bohemiancoding.com/sketch -->
    <title>new-google-favicon</title>
    <desc>Created with Sketch.</desc>
    <defs></defs>
    <g id="Page-1" stroke="none" stroke-width="1" fill="none" fill-rule="evenodd" sketch:type="MSPage">
        <g id="Artboard-1" sketch:type="MSArtboardGroup" transform="translate(-1.000000, -1.000000)">
            <g id="new-google-favicon" sketch:type="MSLayerGroup" transform="translate(1.000000, 1.000000)">
                <g id="Group" sketch:type="MSShapeGroup">
                    <path d="M13.0715847,1.06648794 C8.36830601,2.68713137 4.36065574,6.23163539 2.1284153,10.7171582 C1.34972678,12.2646113 0.789071038,13.9061662 0.446448087,15.6104558 C-0.404918033,19.8345845 0.186885246,24.3410188 2.11803279,28.1887399 C3.37431694,30.6981233 5.18087432,32.9356568 7.36120219,34.6817694 C9.4273224,36.3337802 11.8256831,37.5675603 14.3797814,38.247185 C17.5983607,39.1150134 21.0245902,39.0941019 24.2639344,38.3517426 C27.1918033,37.672118 29.9639344,36.2605898 32.1754098,34.2112601 C34.5114754,32.0469169 36.1830601,29.2029491 37.0655738,26.1394102 C38.0311475,22.8040214 38.1557377,19.2386059 37.5535519,15.8091153 L19.384153,15.8091153 L19.384153,23.4 L29.9120219,23.4 C29.5071038,25.8257373 28.0743169,28.0423592 26.0497268,29.4120643 C24.7726776,30.2798928 23.3087432,30.8340483 21.7928962,31.1058981 C20.2770492,31.3672922 18.6989071,31.3986595 17.1830601,31.0954424 C15.6360656,30.7817694 14.1721311,30.1335121 12.8846995,29.2238606 C10.8289617,27.7705094 9.26120219,25.6479893 8.46174863,23.2536193 C7.64153005,20.8174263 7.63114754,18.1093834 8.46174863,15.6836461 C9.0431694,13.9689008 9.99836066,12.3900804 11.2650273,11.0935657 C12.8224044,9.48337802 14.8469945,8.33324397 17.0377049,7.86273458 C18.9065574,7.46541555 20.879235,7.5386059 22.7065574,8.09276139 C24.2639344,8.56327078 25.6967213,9.4310992 26.8699454,10.5603217 L30.420765,6.9844504 C31.0437158,6.34664879 31.6978142,5.72975871 32.3,5.07104558 C30.5038251,3.39812332 28.3857923,2.04932976 26.0808743,1.1919571 C21.9278689,-0.355495979 17.2557377,-0.386863271 13.0715847,1.06648794 L13.0715847,1.06648794 Z" id="Shape" fill="#FFFFFF"></path>
                    <path d="M13.0715847,1.06648794 C17.2453552,-0.386863271 21.9278689,-0.355495979 26.0808743,1.18150134 C28.3857923,2.03887399 30.4934426,3.3772118 32.3,5.06058981 C31.6978142,5.71930295 31.0437158,6.33619303 30.420765,6.97399464 C29.2371585,8.16595174 28.0535519,9.35790885 26.8699454,10.549866 C25.6967213,9.42064343 24.2639344,8.56327078 22.7065574,8.08230563 C20.879235,7.52815013 18.9065574,7.44450402 17.0377049,7.85227882 C14.857377,8.3227882 12.8327869,9.47292225 11.2650273,11.0831099 C9.99836066,12.3691689 9.0431694,13.958445 8.46174863,15.6731903 C6.35409836,14.0211796 4.24644809,12.3796247 2.1284153,10.7276139 C4.36065574,6.23163539 8.36830601,2.68713137 13.0715847,1.06648794 L13.0715847,1.06648794 Z" id="Shape" fill="#EA4335"></path>
                    <path d="M0.456830601,15.6 C0.799453552,13.9061662 1.36010929,12.2541555 2.13879781,10.7067024 C4.24644809,12.3587131 6.35409836,14.0002681 8.47213115,15.6522788 C7.64153005,18.0884718 7.64153005,20.7965147 8.47213115,23.222252 C6.36448087,24.8742627 4.2568306,26.5262735 2.14918033,28.1678284 C0.19726776,24.330563 -0.394535519,19.8241287 0.456830601,15.6 L0.456830601,15.6 Z" id="Shape" fill="#FBBC05"></path>
                    <path d="M19.384153,15.7986595 L37.5535519,15.7986595 C38.1557377,19.2176944 38.020765,22.7831099 37.0655738,26.1289544 C36.1830601,29.1924933 34.5114754,32.0364611 32.1754098,34.2008043 C30.1300546,32.6010724 28.0846995,31.0013405 26.0393443,29.4016086 C28.0639344,28.0319035 29.4967213,25.8152815 29.9016393,23.3895442 L19.3737705,23.3895442 C19.384153,20.8592493 19.384153,18.3289544 19.384153,15.7986595 L19.384153,15.7986595 Z" id="Shape" fill="#4285F4"></path>
                    <path d="M2.1284153,28.1782842 C4.23606557,26.5367292 6.34371585,24.8847185 8.45136612,23.2327078 C9.26120219,25.6270777 10.8185792,27.7495979 12.8743169,29.2029491 C14.1617486,30.1126005 15.6360656,30.7608579 17.1726776,31.0745308 C18.6885246,31.3882038 20.2562842,31.3463807 21.7825137,31.0849866 C23.2983607,30.8131367 24.7622951,30.2589812 26.0393443,29.3911528 C28.0846995,30.9908847 30.1300546,32.5906166 32.1754098,34.1903485 C29.9639344,36.250134 27.1918033,37.6512064 24.2639344,38.3308311 C21.0245902,39.0731903 17.5983607,39.0941019 14.3797814,38.2262735 C11.8256831,37.5466488 9.4273224,36.3233244 7.36120219,34.6608579 C5.19125683,32.9252011 3.38469945,30.6876676 2.1284153,28.1782842 L2.1284153,28.1782842 Z" id="Shape" fill="#34A853"></path>
                </g>
            </g>
        </g>
    </g>
</svg>