<?xml version="1.0" encoding="UTF-8" standalone="no"?>
<svg width="80px" height="75px" viewBox="0 0 80 75" version="1.1" xmlns="http://www.w3.org/2000/svg" xmlns:xlink="http://www.w3.org/1999/xlink" xmlns:sketch="http://www.bohemiancoding.com/sketch/ns">
    <!-- Generator: Sketch 3.3.3 (12072) - http://www.bohemiancoding.com/sketch -->
    <title>telephone copy</title>
    <desc>Created with Sketch.</desc>
    <defs></defs>
    <g id="Page-1" stroke="none" stroke-width="1" fill="none" fill-rule="evenodd" sketch:type="MSPage">
        <g id="telephone-copy" sketch:type="MSLayerGroup" fill="#26B3D5">
            <g id="Shape" sketch:type="MSShapeGroup">
                <path d="M47.7653739,39.5899121 C51.1640619,41.8596274 51.4527794,45.4376596 49.2263055,51.588625 C48.7517274,52.8997175 48.2018682,54.2350904 47.3822332,56.1105892 C47.2446882,56.4253212 46.4682895,58.1885496 46.2516715,58.6865074 C45.822095,59.6740101 45.4920139,60.4593295 45.1998988,61.1987297 C44.4446882,63.1103151 43.9784029,64.6370384 43.7830357,66.0207807 L43.7862913,65.99843 C43.6053818,67.2033706 43.3652606,68.1019285 43.0884867,68.6873552 C42.9860071,68.9041182 42.8902371,69.0532086 42.8108603,69.1412133 C42.7915051,69.1626724 42.778612,69.1744985 42.7720877,69.1793522 C42.7775151,69.1753145 42.7886339,69.1687922 42.8029385,69.1624497 C42.8188517,69.155394 42.8344559,69.1505145 42.8459086,69.1483018 C42.8449317,69.1484906 42.8357449,69.1492593 42.8157525,69.1489217 C42.7129158,69.1471855 42.5541505,69.1162882 42.3393552,69.0419835 C41.7194466,68.8275369 40.8840032,68.3371585 39.8580639,67.5504782 L39.8272655,67.5268623 L39.7957676,67.5041996 C37.6074719,65.9297198 29.5581855,59.1924807 23.2828036,53.477501 C14.2531113,45.2541754 8.05580864,38.5467946 6.71389024,35.2051256 C2.40849562,24.4837555 7.55814722,12.2809788 18.2127395,7.94992797 C23.5286006,5.78905091 29.6800656,5.67554277 34.7205755,7.57428617 C39.8299872,9.49898467 43.1934654,13.2187026 43.9922578,18.1540416 L45.5243822,15.3781755 C41.4612493,17.0850768 39.0356523,21.3468115 39.2465237,26.144625 C39.4664235,31.1478564 42.440038,36.0335408 47.7653739,39.5899121 L47.7653739,39.5899121 Z M44.3342411,25.9182695 C44.2139693,23.1818075 44.4051752,20.9263743 46.4057631,20.0859376 L47.6874175,17.3305207 L48.8251089,16.7104493 C47.7154143,9.85420088 43.2422422,5.31318985 36.5062618,2.77576826 C30.2625903,0.42379786 22.7935695,0.56161782 16.3049846,3.19920262 C3.04278119,8.59023726 -3.36706841,23.7792188 1.99203095,37.1245433 C3.74797267,41.4972205 10.1641707,48.4415132 19.8652141,57.2762371 C26.2728327,63.1116445 34.4601521,69.964417 36.8333903,71.671963 C38.1945405,72.7171691 39.4774223,73.4701796 40.6834772,73.8873934 C42.1560347,74.3967991 43.5721343,74.4207082 44.856668,73.8511621 C46.1081582,73.296267 47.0345682,72.2691603 47.6874161,70.8882687 C48.2090555,69.7849069 48.5723919,68.4252657 48.8218529,66.76374 C48.9522839,65.8406347 49.3134247,64.6581782 49.9324344,63.0913439 C50.19957,62.4151716 50.5088126,61.6794306 50.9170809,60.7409106 C51.1280696,60.2558936 51.9020694,58.4981131 52.0441738,58.1729481 C52.9045493,56.2042266 53.4911874,54.7795334 54.0115388,53.3419854 C55.3160533,49.7380697 55.9233546,46.7193765 55.6980452,43.9271499 C55.4110663,40.3706636 53.7378007,37.4285958 50.5817552,35.3209222 C46.560835,32.6356672 44.4791571,29.2154453 44.3342411,25.9182695 Z M37.7401474,22.5915429 C35.12544,16.0803522 27.7377865,12.9237113 21.2664337,15.5542914 C14.7950809,18.1848714 11.660311,25.6188368 14.2750184,32.1300276 C16.8895751,38.6408432 24.2756671,41.7946751 30.7473926,39.1639436 C37.2191181,36.533212 40.3547041,29.1023585 37.7401474,22.5915429 L37.7401474,22.5915429 Z M33.0182881,24.5109606 C34.5791678,28.3978909 32.7036835,32.8424984 28.8396376,34.4132182 C24.9755917,35.983938 20.5577573,34.0975403 18.9968777,30.21061 C17.4356387,26.3227851 19.3110318,21.8753751 23.1741887,20.3050167 C27.0373456,18.7346583 31.4570492,20.6231357 33.0182881,24.5109606 L33.0182881,24.5109606 Z"></path>
                <path d="M46.8924018,70.3360506 C42.8150044,74.4118309 40.2083355,74.1093802 38.5294022,68.0095351 C37.4663382,64.5544878 28.903342,29.0058908 31.3438383,19.7119779 C34.7088098,6.897473 47.617399,-0.702016608 60.1694208,2.72991824 C72.7266106,6.16326612 80.1779048,19.3294919 76.8129333,32.1439968 C74.3698157,41.447892 56.4934356,60.5680634 46.8924018,70.3360506 L46.8924018,70.3360506 Z M64.0261661,28.0345519 C65.4684293,22.6190175 62.2636064,17.029912 56.8804212,15.5786661 C51.497236,14.1274203 45.9442201,17.3555115 44.5019568,22.7710458 C43.0596936,28.1865802 46.2654419,33.7722111 51.6486271,35.2234569 C57.0318123,36.6747028 62.5839028,33.4500862 64.0261661,28.0345519 L64.0261661,28.0345519 L64.0261661,28.0345519 Z"></path>
                <path d="M45.7612714,67.7481352 C44.8681426,68.628405 44.1070462,69.2256232 43.4928171,69.5481661 C43.245614,69.6779769 43.0404407,69.7536243 42.8801177,69.7843276 C42.7827119,69.8029817 42.7224177,69.8024311 42.6809452,69.7926311 C42.6438651,69.783869 42.599234,69.7618415 42.5317595,69.708876 C42.4126208,69.6153556 42.273989,69.4607341 42.1226537,69.2352148 C41.7263282,68.6446122 41.3353953,67.7062146 40.9751016,66.4155423 L40.9664132,66.384418 L40.9567881,66.353574 C40.1451293,63.7525636 37.7431184,53.4832043 36.1469809,45.1043121 C33.8398919,32.9932952 32.8997639,23.85673 33.8512522,20.284019 C36.8878465,8.88201474 48.5374069,2.11649802 59.868394,5.17118759 C71.2028955,8.22682458 77.9274712,19.9440337 74.8904445,31.3476617 C73.8979926,35.0741852 69.7096889,41.2672471 63.1401612,49.0342875 C58.0998338,54.9933805 52.0549418,61.434593 45.7480203,67.7613112 L45.7612714,67.7481352 L45.7612714,67.7481352 Z M66.3584255,51.7897471 C73.3372248,43.5388318 77.7604558,36.9983933 78.9723007,32.448078 C82.6134014,18.7762333 74.5508848,4.72773428 60.9621241,1.06437778 C47.3769627,-2.5980084 33.410087,5.5132961 29.769396,19.1836027 C28.580545,23.6475785 29.5481446,33.0511246 31.9966723,45.9046214 C33.6206692,54.4297605 36.0568099,64.8450357 36.9249831,67.6271496 C37.3791023,69.2575668 37.9361957,70.5948171 38.6203166,71.6142912 C39.4347993,72.8280297 40.4643931,73.6362309 41.7147318,73.9316872 C42.9341563,74.2198384 44.1860224,73.980095 45.4481058,73.3173519 C46.4816808,72.7746028 47.5532876,71.933733 48.7184686,70.7853279 C55.1133511,64.3704893 61.2315565,57.8511568 66.3584255,51.7897471 Z M66.1748423,28.9965793 C67.9194223,22.4459155 64.0447208,15.6908679 57.5342145,13.9357185 C51.0237083,12.1805691 44.3111169,16.0814176 42.5665369,22.6320814 C40.8220733,29.1823082 44.6971499,35.9342007 51.2080902,37.6894672 C57.7190304,39.4447336 64.4303787,35.5468062 66.1748423,28.9965793 L66.1748423,28.9965793 Z M63.3327112,28.2306364 C62.0092522,33.2000475 56.9097539,36.1618181 51.9696784,34.8300368 C47.0296028,33.4982554 44.085195,28.3679504 45.408654,23.3985393 C46.7323868,18.4281001 51.833707,15.4636002 56.7727609,16.7951061 C61.7118148,18.126612 64.656444,23.2601972 63.3327112,28.2306364 L63.3327112,28.2306364 Z"></path>
            </g>
        </g>
    </g>
</svg>